<svg xmlns="http://www.w3.org/2000/svg" width="20" height="21" viewBox="0 0 20 21" fill="none"><g clip-path="url(#clip0_552_3580)"><path d="M18.5195 0.174805H1.47656C0.660156 0.174805 0 0.819336 0 1.61621V18.7295C0 19.5264 0.660156 20.1748 1.47656 20.1748H18.5195C19.3359 20.1748 20 19.5264 20 18.7334V1.61621C20 0.819336 19.3359 0.174805 18.5195 0.174805ZM5.93359 17.2178H2.96484V7.6709H5.93359V17.2178ZM4.44922 6.37012C3.49609 6.37012 2.72656 5.60059 2.72656 4.65137C2.72656 3.70215 3.49609 2.93262 4.44922 2.93262C5.39844 2.93262 6.16797 3.70215 6.16797 4.65137C6.16797 5.59668 5.39844 6.37012 4.44922 6.37012ZM17.043 17.2178H14.0781V12.5771C14.0781 11.4717 14.0586 10.0459 12.5352 10.0459C10.9922 10.0459 10.7578 11.2529 10.7578 12.499V17.2178H7.79688V7.6709H10.6406V8.97559H10.6797C11.0742 8.22559 12.043 7.43262 13.4844 7.43262C16.4883 7.43262 17.043 9.40918 17.043 11.9795V17.2178Z" fill="white"/></g><defs><clipPath id="clip0_552_3580"><rect width="20" height="20" fill="white" transform="translate(0 0.174805)"/></clipPath></defs></svg>